<svg width="1010" height="831" viewBox="0 0 1010 831" fill="none" xmlns="http://www.w3.org/2000/svg">
<path d="M309.5 171.409C308.994 171.415 308.487 171.424 307.978 171.434C308.811 171.408 309.332 171.412 309.5 171.409Z" fill="white"/>
<path d="M149.871 264C176.001 402.923 282.187 493.083 383.168 526.251C381.549 518.55 378.798 511.855 374.434 505.165L374 504.5C359 481.5 308 426 305 423.5C302 421 267 380 253 359.5C241.8 343.1 231.667 316.333 228 305C220.692 277.891 218.699 257.199 222.182 239.906C220.117 238.805 218.057 237.688 216 236.553C214.174 235.545 212.352 234.524 210.534 233.488C187.456 220.344 164.991 204.863 144 185.5C143.12 213.171 145.236 239.353 149.871 264Z" fill="white"/>
<path d="M595.961 534.661C705.146 511.096 831.315 417.198 860.129 264C864.764 239.353 866.88 213.171 866 185.5C843.355 206.388 818.994 222.759 794 236.553C781.156 243.641 768.146 250.048 755.115 256.038C768.554 260.526 778.041 265.065 792.5 288C807 311 803 331 802.5 347.5C802 364 756.5 348 746 344C743 352.5 728.2 376.8 693 406C649 442.5 648 441.5 620 454.5C597.808 464.803 559.388 465.161 542.47 464.032C566.217 487.109 583.658 510.911 595.961 534.661Z" fill="white"/>
<path d="M578 76.261C551.105 51.6329 524.732 32.2599 505 20C485.268 32.2599 458.895 51.6329 432 76.261C411.05 95.4448 389.784 117.817 371.092 142.5C362.982 153.21 355.357 164.355 348.452 175.863C350.2 176.367 351.884 176.912 353.5 177.5C358.261 179.231 362.992 181.187 367.594 183.412C387.131 190.761 429.627 206.22 452 212.5C480.5 220.5 529 233.5 576.5 241.5C610.967 247.305 663.336 250.214 693.109 251.564C684.207 212.487 663.849 175.436 638.908 142.5C620.216 117.817 598.95 95.4448 578 76.261Z" fill="white"/>
<path fill-rule="evenodd" clip-rule="evenodd" d="M222.182 239.906C220.117 238.805 218.057 237.688 216 236.553C205.2 228.995 211.5 128.368 216 79C243.333 86.5049 300 102.512 308 106.5C310.5 77.5 316.2 17.6 319 10C345.833 18.3406 406 43.2698 432 76.261C411.05 95.4448 389.784 117.817 371.092 142.5C362.982 153.21 355.357 164.355 348.452 175.863C337.548 172.721 324.162 171.215 309.5 171.409C308.994 171.415 308.487 171.424 307.978 171.434C300.967 171.653 271.823 174.002 244.359 200.5C242.056 202.722 239.765 205.113 237.5 207.687C229.697 217.456 224.61 227.856 222.182 239.906Z" fill="white"/>
<path fill-rule="evenodd" clip-rule="evenodd" d="M755.115 256.038C768.146 250.048 781.156 243.641 794 236.553C804.8 228.995 798.5 128.368 794 79C766.667 86.5049 710 102.512 702 106.5C699.5 77.5 693.8 17.6 691 10C664.167 18.3406 604 43.2698 578 76.261C598.95 95.4448 620.216 117.817 638.908 142.5C663.849 175.436 684.207 212.487 693.109 251.564C699.447 251.852 704.76 252.069 708.66 252.228C708.661 252.228 708.663 252.228 708.665 252.228C708.667 252.228 708.67 252.228 708.673 252.228C711.693 252.352 713.862 252.44 715 252.5C717.375 252.625 720.219 252.625 723.359 252.625C732.781 252.625 744.875 252.625 755 256L755.115 256.038Z" fill="white"/>
<path d="M995 523.5C959.978 493 884.039 433.1 860.466 437.5C831.21 483.327 790.15 522.914 733 543.783C743.5 553.189 767.7 575.5 780.5 589.5C810.833 589 896.2 575.1 995 523.5Z" fill="white"/>
<path d="M149.871 264C147.768 270.8 103.748 236.167 82 218C85.5749 271.846 101.929 362.933 149.534 437.5C178.79 483.327 219.85 522.914 277 543.783C266.5 553.189 242.3 575.5 229.5 589.5C220.7 598.607 191.5 683.961 178 725.5C257.2 729.5 348.667 693.833 384.5 675.5C386.944 631.85 387.042 544.673 383.168 526.251C282.187 493.083 176.001 402.923 149.871 264Z" fill="white"/>
<path d="M149.534 437.5C125.961 433.1 50.0225 493 15 523.5C113.8 575.1 199.167 589 229.5 589.5C242.3 575.5 266.5 553.189 277 543.783C219.85 522.914 178.79 483.327 149.534 437.5Z" fill="white"/>
<path d="M928 218C906.252 236.167 862.232 270.8 860.129 264C831.315 417.198 705.146 511.096 595.961 534.661C633 634 630.628 651 625.5 675.5C661.333 693.833 752.8 729.5 832 725.5C818.5 683.961 789.3 598.607 780.5 589.5C767.7 575.5 743.5 553.189 733 543.783C790.15 522.914 831.21 483.327 860.466 437.5C908.071 362.933 924.425 271.846 928 218Z" fill="white"/>
<path fill-rule="evenodd" clip-rule="evenodd" d="M505.5 821C539.5 801.167 611.1 744.3 625.5 675.5C630.628 651 633 634 595.961 534.661C583.658 510.911 566.217 487.109 542.47 464.032C538.492 460.167 534.337 456.321 530 452.5C520.333 444.667 496 426.1 476 414.5C451 400 386 367 384 350.5C382 334 383 317.5 392.5 304.5C399.016 295.584 410 281.964 414 264.608C415.832 256.658 415.843 248 414 238.5C408.625 210.8 389.576 194.039 367.594 183.412C362.992 181.187 358.261 179.231 353.5 177.5C351.884 176.912 350.2 176.367 348.452 175.863C337.548 172.721 324.162 171.215 309.5 171.409C308.994 171.415 308.487 171.424 307.978 171.434C300.967 171.653 271.823 174.002 244.359 200.5C242.056 202.722 239.765 205.113 237.5 207.687C229.697 217.456 224.61 227.856 222.182 239.906C218.699 257.199 220.692 277.891 228 305C231.667 316.333 241.8 343.1 253 359.5C267 380 302 421 305 423.5C308 426 359 481.5 374 504.5L374.434 505.165C378.798 511.855 381.549 518.55 383.168 526.251C387.042 544.673 386.944 631.85 384.5 675.5C398.9 744.3 471.5 801.167 505.5 821ZM351 269C362.598 269 372 259.598 372 248C372 236.402 362.598 227 351 227C339.402 227 330 236.402 330 248C330 259.598 339.402 269 351 269Z" fill="white"/>
<path d="M476 414.5C496 426.1 520.333 444.667 530 452.5C534.337 456.321 538.492 460.167 542.47 464.032C559.388 465.161 597.808 464.803 620 454.5C648 441.5 649 442.5 693 406C728.2 376.8 743 352.5 746 344C756.5 348 802 364 802.5 347.5C803 331 807 311 792.5 288C778.041 265.065 768.554 260.526 755.115 256.038L755 256C744.875 252.625 732.781 252.625 723.359 252.625C720.219 252.625 717.375 252.625 715 252.5C713.862 252.44 711.693 252.352 708.673 252.228L708.665 252.228L708.66 252.228C704.76 252.069 699.447 251.852 693.109 251.564C663.336 250.214 610.967 247.305 576.5 241.5C529 233.5 480.5 220.5 452 212.5C429.627 206.22 387.131 190.761 367.594 183.412C389.576 194.039 408.625 210.8 414 238.5C415.843 248 415.832 256.658 414 264.608C410 281.964 399.016 295.584 392.5 304.5C383 317.5 382 334 384 350.5C386 367 451 400 476 414.5Z" fill="white"/>
<path d="M860.129 264C864.764 239.353 866.88 213.171 866 185.5C843.355 206.388 818.994 222.759 794 236.553M860.129 264C862.232 270.8 906.252 236.167 928 218C924.425 271.846 908.071 362.933 860.466 437.5M860.129 264C831.315 417.198 705.146 511.096 595.961 534.661M860.466 437.5C884.039 433.1 959.978 493 995 523.5C896.2 575.1 810.833 589 780.5 589.5M860.466 437.5C831.21 483.327 790.15 522.914 733 543.783C743.5 553.189 767.7 575.5 780.5 589.5M780.5 589.5C789.3 598.607 818.5 683.961 832 725.5C752.8 729.5 661.333 693.833 625.5 675.5M625.5 675.5C611.1 744.3 539.5 801.167 505.5 821C471.5 801.167 398.9 744.3 384.5 675.5M625.5 675.5C630.628 651 633 634 595.961 534.661M578 76.261C551.105 51.6329 524.732 32.2599 505 20C485.268 32.2599 458.895 51.6329 432 76.261M578 76.261C604 43.2698 664.167 18.3406 691 10C693.8 17.6 699.5 77.5 702 106.5M578 76.261C598.95 95.4448 620.216 117.817 638.908 142.5M702 106.5C685.938 114.333 650.834 132.5 638.908 142.5M702 106.5C710 102.512 766.667 86.5049 794 79C798.5 128.368 804.8 228.995 794 236.553M638.908 142.5C663.849 175.436 684.207 212.487 693.109 251.564M794 236.553C781.156 243.641 768.146 250.048 755.115 256.038M149.871 264C145.236 239.353 143.12 213.171 144 185.5C164.991 204.863 187.456 220.344 210.534 233.488M149.871 264C147.768 270.8 103.748 236.167 82 218C85.5749 271.846 101.929 362.933 149.534 437.5M149.871 264C176.001 402.923 282.187 493.083 383.168 526.251M149.534 437.5C125.961 433.1 50.0225 493 15 523.5C113.8 575.1 199.167 589 229.5 589.5M149.534 437.5C178.79 483.327 219.85 522.914 277 543.783C266.5 553.189 242.3 575.5 229.5 589.5M229.5 589.5C220.7 598.607 191.5 683.961 178 725.5C257.2 729.5 348.667 693.833 384.5 675.5M384.5 675.5C386.944 631.85 387.042 544.673 383.168 526.251M432 76.261C406 43.2698 345.833 18.3406 319 10C316.2 17.6 310.5 77.5 308 106.5M432 76.261C411.05 95.4448 389.784 117.817 371.092 142.5M308 106.5C324.062 114.333 359.166 132.5 371.092 142.5M308 106.5C300 102.512 243.333 86.5049 216 79C211.5 128.368 205.2 228.995 216 236.553M371.092 142.5C362.982 153.21 355.357 164.355 348.452 175.863M216 236.553C218.057 237.688 220.117 238.805 222.182 239.906M216 236.553C214.174 235.545 212.352 234.524 210.534 233.488M309.5 171.409C308.994 171.415 308.487 171.424 307.978 171.434M309.5 171.409C309.332 171.412 308.811 171.408 307.978 171.434M309.5 171.409C324.162 171.215 337.548 172.721 348.452 175.863M307.978 171.434C272.239 172.137 229.965 180.966 202.5 188M307.978 171.434C300.967 171.653 271.823 174.002 244.359 200.5M200 237.5C203.24 235.88 207.007 234.537 210.534 233.488M414 264.608C410 281.964 399.016 295.584 392.5 304.5C383 317.5 382 334 384 350.5C386 367 451 400 476 414.5C496 426.1 520.333 444.667 530 452.5C534.337 456.321 538.492 460.167 542.47 464.032M414 264.608C415.832 256.658 415.843 248 414 238.5C408.625 210.8 389.576 194.039 367.594 183.412M414 264.608L450 269M237.5 207.687C231.758 214.213 226.181 221.914 221 231C218.8 231.367 214.846 232.207 210.534 233.488M237.5 207.687C239.765 205.113 242.056 202.722 244.359 200.5M237.5 207.687C229.697 217.456 224.61 227.856 222.182 239.906M244.359 200.5C236.072 201.833 218 205.2 212 208M366.5 183C366.856 183.134 367.221 183.272 367.594 183.412M755 256C755.038 256.013 755.077 256.026 755.115 256.038M755 256C744.875 252.625 732.781 252.625 723.359 252.625C720.219 252.625 717.375 252.625 715 252.5C713.862 252.44 711.693 252.352 708.673 252.228M755 256L755.115 256.038M746 344C756.5 348 802 364 802.5 347.5C803 331 807 311 792.5 288C778.041 265.065 768.554 260.526 755.115 256.038M746 344C735.5 340 687.5 335.5 677.5 335C667.5 334.5 598 333 593 333.5C588 334 538 332.5 531 331.5C524 330.5 472.5 329 446 324C424.8 320 399.5 315 389.5 313M746 344C743 352.5 728.2 376.8 693 406C649 442.5 648 441.5 620 454.5C597.808 464.803 559.388 465.161 542.47 464.032M542 464C542.155 464.011 542.311 464.021 542.47 464.032M383.168 526.251C381.549 518.55 378.798 511.855 374.434 505.165L374 504.5C359 481.5 308 426 305 423.5C302 421 267 380 253 359.5C241.8 343.1 231.667 316.333 228 305C220.692 277.891 218.699 257.199 222.182 239.906M595.961 534.661C583.658 510.911 566.217 487.109 542.47 464.032M348.452 175.863C350.2 176.367 351.884 176.912 353.5 177.5C358.261 179.231 362.992 181.187 367.594 183.412M367.594 183.412C387.131 190.761 429.627 206.22 452 212.5C480.5 220.5 529 233.5 576.5 241.5C610.967 247.305 663.336 250.214 693.109 251.564M693.109 251.564C699.447 251.852 704.76 252.069 708.66 252.228M708.665 252.228L708.673 252.228M708.665 252.228L708.66 252.228M708.665 252.228C708.663 252.228 708.661 252.228 708.66 252.228M708.665 252.228C708.667 252.228 708.67 252.228 708.673 252.228M372 248C372 259.598 362.598 269 351 269C339.402 269 330 259.598 330 248C330 236.402 339.402 227 351 227C362.598 227 372 236.402 372 248Z" stroke="#191B20" stroke-width="16" stroke-linecap="round"/>
<mask id="mask0_201_53" style="mask-type:alpha" maskUnits="userSpaceOnUse" x="0" y="0" width="1010" height="831">
<path d="M309.5 171.409C308.994 171.415 308.487 171.424 307.978 171.434C308.811 171.408 309.332 171.412 309.5 171.409Z" fill="#4B4B4B"/>
<path d="M309.5 171.409C308.994 171.415 308.487 171.424 307.978 171.434C308.811 171.408 309.332 171.412 309.5 171.409Z" fill="black" fill-opacity="0.2"/>
<path d="M149.871 264C176.001 402.923 282.187 493.083 383.168 526.251C381.549 518.55 378.798 511.855 374.434 505.165L374 504.5C359 481.5 308 426 305 423.5C302 421 267 380 253 359.5C241.8 343.1 231.667 316.333 228 305C220.692 277.891 218.699 257.199 222.182 239.906C220.117 238.805 218.057 237.688 216 236.553C214.174 235.545 212.352 234.524 210.534 233.488C187.456 220.344 164.991 204.863 144 185.5C143.12 213.171 145.236 239.353 149.871 264Z" fill="#4B4B4B"/>
<path d="M149.871 264C176.001 402.923 282.187 493.083 383.168 526.251C381.549 518.55 378.798 511.855 374.434 505.165L374 504.5C359 481.5 308 426 305 423.5C302 421 267 380 253 359.5C241.8 343.1 231.667 316.333 228 305C220.692 277.891 218.699 257.199 222.182 239.906C220.117 238.805 218.057 237.688 216 236.553C214.174 235.545 212.352 234.524 210.534 233.488C187.456 220.344 164.991 204.863 144 185.5C143.12 213.171 145.236 239.353 149.871 264Z" fill="black" fill-opacity="0.2"/>
<path d="M595.961 534.661C705.146 511.096 831.315 417.198 860.129 264C864.764 239.353 866.88 213.171 866 185.5C843.355 206.388 818.994 222.759 794 236.553C781.156 243.641 768.146 250.048 755.115 256.038C768.554 260.526 778.041 265.065 792.5 288C807 311 803 331 802.5 347.5C802 364 756.5 348 746 344C743 352.5 728.2 376.8 693 406C649 442.5 648 441.5 620 454.5C597.808 464.803 559.388 465.161 542.47 464.032C566.217 487.109 583.658 510.911 595.961 534.661Z" fill="#4B4B4B"/>
<path d="M595.961 534.661C705.146 511.096 831.315 417.198 860.129 264C864.764 239.353 866.88 213.171 866 185.5C843.355 206.388 818.994 222.759 794 236.553C781.156 243.641 768.146 250.048 755.115 256.038C768.554 260.526 778.041 265.065 792.5 288C807 311 803 331 802.5 347.5C802 364 756.5 348 746 344C743 352.5 728.2 376.8 693 406C649 442.5 648 441.5 620 454.5C597.808 464.803 559.388 465.161 542.47 464.032C566.217 487.109 583.658 510.911 595.961 534.661Z" fill="black" fill-opacity="0.2"/>
<path d="M578 76.261C551.105 51.6329 524.732 32.2599 505 20C485.268 32.2599 458.895 51.6329 432 76.261C411.05 95.4448 389.784 117.817 371.092 142.5C362.982 153.21 355.357 164.355 348.452 175.863C350.2 176.367 351.884 176.912 353.5 177.5C358.261 179.231 362.992 181.187 367.594 183.412C387.131 190.761 429.627 206.22 452 212.5C480.5 220.5 529 233.5 576.5 241.5C610.967 247.305 663.336 250.214 693.109 251.564C684.207 212.487 663.849 175.436 638.908 142.5C620.216 117.817 598.95 95.4448 578 76.261Z" fill="#4B4B4B"/>
<path d="M578 76.261C551.105 51.6329 524.732 32.2599 505 20C485.268 32.2599 458.895 51.6329 432 76.261C411.05 95.4448 389.784 117.817 371.092 142.5C362.982 153.21 355.357 164.355 348.452 175.863C350.2 176.367 351.884 176.912 353.5 177.5C358.261 179.231 362.992 181.187 367.594 183.412C387.131 190.761 429.627 206.22 452 212.5C480.5 220.5 529 233.5 576.5 241.5C610.967 247.305 663.336 250.214 693.109 251.564C684.207 212.487 663.849 175.436 638.908 142.5C620.216 117.817 598.95 95.4448 578 76.261Z" fill="black" fill-opacity="0.2"/>
<path fill-rule="evenodd" clip-rule="evenodd" d="M222.182 239.906C220.117 238.805 218.057 237.688 216 236.553C205.2 228.995 211.5 128.368 216 79C243.333 86.5049 300 102.512 308 106.5C310.5 77.5 316.2 17.6 319 10C345.833 18.3406 406 43.2698 432 76.261C411.05 95.4448 389.784 117.817 371.092 142.5C362.982 153.21 355.357 164.355 348.452 175.863C337.548 172.721 324.162 171.215 309.5 171.409C308.994 171.415 308.487 171.424 307.978 171.434C300.967 171.653 271.823 174.002 244.359 200.5C242.056 202.722 239.765 205.113 237.5 207.687C229.697 217.456 224.61 227.856 222.182 239.906Z" fill="#4B4B4B"/>
<path fill-rule="evenodd" clip-rule="evenodd" d="M222.182 239.906C220.117 238.805 218.057 237.688 216 236.553C205.2 228.995 211.5 128.368 216 79C243.333 86.5049 300 102.512 308 106.5C310.5 77.5 316.2 17.6 319 10C345.833 18.3406 406 43.2698 432 76.261C411.05 95.4448 389.784 117.817 371.092 142.5C362.982 153.21 355.357 164.355 348.452 175.863C337.548 172.721 324.162 171.215 309.5 171.409C308.994 171.415 308.487 171.424 307.978 171.434C300.967 171.653 271.823 174.002 244.359 200.5C242.056 202.722 239.765 205.113 237.5 207.687C229.697 217.456 224.61 227.856 222.182 239.906Z" fill="black" fill-opacity="0.2"/>
<path fill-rule="evenodd" clip-rule="evenodd" d="M755.115 256.038C768.146 250.048 781.156 243.641 794 236.553C804.8 228.995 798.5 128.368 794 79C766.667 86.5049 710 102.512 702 106.5C699.5 77.5 693.8 17.6 691 10C664.167 18.3406 604 43.2698 578 76.261C598.95 95.4448 620.216 117.817 638.908 142.5C663.849 175.436 684.207 212.487 693.109 251.564C699.449 251.852 704.765 252.069 708.665 252.228C711.689 252.351 713.862 252.44 715 252.5C717.375 252.625 720.219 252.625 723.359 252.625C732.781 252.625 744.875 252.625 755 256L755.115 256.038Z" fill="#4B4B4B"/>
<path fill-rule="evenodd" clip-rule="evenodd" d="M755.115 256.038C768.146 250.048 781.156 243.641 794 236.553C804.8 228.995 798.5 128.368 794 79C766.667 86.5049 710 102.512 702 106.5C699.5 77.5 693.8 17.6 691 10C664.167 18.3406 604 43.2698 578 76.261C598.95 95.4448 620.216 117.817 638.908 142.5C663.849 175.436 684.207 212.487 693.109 251.564C699.449 251.852 704.765 252.069 708.665 252.228C711.689 252.351 713.862 252.44 715 252.5C717.375 252.625 720.219 252.625 723.359 252.625C732.781 252.625 744.875 252.625 755 256L755.115 256.038Z" fill="black" fill-opacity="0.2"/>
<path d="M995 523.5C959.978 493 884.039 433.1 860.466 437.5C831.21 483.327 790.15 522.914 733 543.783C743.5 553.189 767.7 575.5 780.5 589.5C810.833 589 896.2 575.1 995 523.5Z" fill="#4B4B4B"/>
<path d="M995 523.5C959.978 493 884.039 433.1 860.466 437.5C831.21 483.327 790.15 522.914 733 543.783C743.5 553.189 767.7 575.5 780.5 589.5C810.833 589 896.2 575.1 995 523.5Z" fill="black" fill-opacity="0.2"/>
<path d="M149.871 264C147.768 270.8 103.748 236.167 82 218C85.5749 271.846 101.929 362.933 149.534 437.5C178.79 483.327 219.85 522.914 277 543.783C266.5 553.189 242.3 575.5 229.5 589.5C220.7 598.607 191.5 683.961 178 725.5C257.2 729.5 348.667 693.833 384.5 675.5C386.944 631.85 387.042 544.673 383.168 526.251C282.187 493.083 176.001 402.923 149.871 264Z" fill="#4B4B4B"/>
<path d="M149.871 264C147.768 270.8 103.748 236.167 82 218C85.5749 271.846 101.929 362.933 149.534 437.5C178.79 483.327 219.85 522.914 277 543.783C266.5 553.189 242.3 575.5 229.5 589.5C220.7 598.607 191.5 683.961 178 725.5C257.2 729.5 348.667 693.833 384.5 675.5C386.944 631.85 387.042 544.673 383.168 526.251C282.187 493.083 176.001 402.923 149.871 264Z" fill="black" fill-opacity="0.2"/>
<path d="M149.534 437.5C125.961 433.1 50.0225 493 15 523.5C113.8 575.1 199.167 589 229.5 589.5C242.3 575.5 266.5 553.189 277 543.783C219.85 522.914 178.79 483.327 149.534 437.5Z" fill="#4B4B4B"/>
<path d="M149.534 437.5C125.961 433.1 50.0225 493 15 523.5C113.8 575.1 199.167 589 229.5 589.5C242.3 575.5 266.5 553.189 277 543.783C219.85 522.914 178.79 483.327 149.534 437.5Z" fill="black" fill-opacity="0.2"/>
<path d="M928 218C906.252 236.167 862.232 270.8 860.129 264C831.315 417.198 705.146 511.096 595.961 534.661C633 634 630.628 651 625.5 675.5C661.333 693.833 752.8 729.5 832 725.5C818.5 683.961 789.3 598.607 780.5 589.5C767.7 575.5 743.5 553.189 733 543.783C790.15 522.914 831.21 483.327 860.466 437.5C908.071 362.933 924.425 271.846 928 218Z" fill="#4B4B4B"/>
<path d="M928 218C906.252 236.167 862.232 270.8 860.129 264C831.315 417.198 705.146 511.096 595.961 534.661C633 634 630.628 651 625.5 675.5C661.333 693.833 752.8 729.5 832 725.5C818.5 683.961 789.3 598.607 780.5 589.5C767.7 575.5 743.5 553.189 733 543.783C790.15 522.914 831.21 483.327 860.466 437.5C908.071 362.933 924.425 271.846 928 218Z" fill="black" fill-opacity="0.2"/>
<path d="M860.129 264C864.764 239.353 866.88 213.171 866 185.5C843.355 206.388 818.994 222.759 794 236.553M860.129 264C862.232 270.8 906.252 236.167 928 218C924.425 271.846 908.071 362.933 860.466 437.5M860.129 264C831.315 417.198 705.146 511.096 595.961 534.661M860.466 437.5C884.039 433.1 959.978 493 995 523.5C896.2 575.1 810.833 589 780.5 589.5M860.466 437.5C831.21 483.327 790.15 522.914 733 543.783C743.5 553.189 767.7 575.5 780.5 589.5M780.5 589.5C789.3 598.607 818.5 683.961 832 725.5C752.8 729.5 661.333 693.833 625.5 675.5M625.5 675.5C611.1 744.3 539.5 801.167 505.5 821C471.5 801.167 398.9 744.3 384.5 675.5M625.5 675.5C630.628 651 633 634 595.961 534.661M578 76.261C551.105 51.6329 524.732 32.2599 505 20C485.268 32.2599 458.895 51.6329 432 76.261M578 76.261C604 43.2698 664.167 18.3406 691 10C693.8 17.6 699.5 77.5 702 106.5M578 76.261C598.95 95.4448 620.216 117.817 638.908 142.5M702 106.5C685.938 114.333 650.834 132.5 638.908 142.5M702 106.5C710 102.512 766.667 86.5049 794 79C798.5 128.368 804.8 228.995 794 236.553M638.908 142.5C663.849 175.436 684.207 212.487 693.109 251.564M794 236.553C781.156 243.641 768.146 250.048 755.115 256.038M149.871 264C145.236 239.353 143.12 213.171 144 185.5C164.991 204.863 187.456 220.344 210.534 233.488M149.871 264C147.768 270.8 103.748 236.167 82 218C85.5749 271.846 101.929 362.933 149.534 437.5M149.871 264C176.001 402.923 282.187 493.083 383.168 526.251M149.534 437.5C125.961 433.1 50.0225 493 15 523.5C113.8 575.1 199.167 589 229.5 589.5M149.534 437.5C178.79 483.327 219.85 522.914 277 543.783C266.5 553.189 242.3 575.5 229.5 589.5M229.5 589.5C220.7 598.607 191.5 683.961 178 725.5C257.2 729.5 348.667 693.833 384.5 675.5M384.5 675.5C386.944 631.85 387.042 544.673 383.168 526.251M432 76.261C406 43.2698 345.833 18.3406 319 10C316.2 17.6 310.5 77.5 308 106.5M432 76.261C411.05 95.4448 389.784 117.817 371.092 142.5M308 106.5C324.062 114.333 359.166 132.5 371.092 142.5M308 106.5C300 102.512 243.333 86.5049 216 79C211.5 128.368 205.2 228.995 216 236.553M371.092 142.5C362.982 153.21 355.357 164.355 348.452 175.863M216 236.553C218.057 237.688 220.117 238.805 222.182 239.906M216 236.553C214.174 235.545 212.352 234.524 210.534 233.488M309.5 171.409C308.994 171.415 308.487 171.424 307.978 171.434M309.5 171.409C309.332 171.412 308.811 171.408 307.978 171.434M309.5 171.409C324.162 171.215 337.548 172.721 348.452 175.863M307.978 171.434C272.239 172.137 229.965 180.966 202.5 188M307.978 171.434C300.967 171.653 271.823 174.002 244.359 200.5M200 237.5C203.24 235.88 207.007 234.537 210.534 233.488M414 264.608C410 281.964 399.016 295.584 392.5 304.5C383 317.5 382 334 384 350.5C386 367 451 400 476 414.5C496 426.1 520.333 444.667 530 452.5C534.337 456.321 538.492 460.167 542.47 464.032M414 264.608C415.832 256.658 415.843 248 414 238.5C408.625 210.8 389.576 194.039 367.594 183.412M414 264.608L450 269M237.5 207.687C231.758 214.213 226.181 221.914 221 231C218.8 231.367 214.846 232.207 210.534 233.488M237.5 207.687C239.765 205.113 242.056 202.722 244.359 200.5M237.5 207.687C229.697 217.456 224.61 227.856 222.182 239.906M244.359 200.5C236.072 201.833 218 205.2 212 208M366.5 183C366.856 183.134 367.221 183.272 367.594 183.412M755 256C755.038 256.013 755.077 256.026 755.115 256.038M755 256C744.875 252.625 732.781 252.625 723.359 252.625C720.219 252.625 717.375 252.625 715 252.5C713.862 252.44 711.689 252.351 708.665 252.228C704.765 252.069 699.449 251.852 693.109 251.564M755 256L755.115 256.038M746 344C756.5 348 802 364 802.5 347.5C803 331 807 311 792.5 288C778.041 265.065 768.554 260.526 755.115 256.038M746 344C735.5 340 687.5 335.5 677.5 335C667.5 334.5 598 333 593 333.5C588 334 538 332.5 531 331.5C524 330.5 472.5 329 446 324C424.8 320 399.5 315 389.5 313M746 344C743 352.5 728.2 376.8 693 406C649 442.5 648 441.5 620 454.5C597.808 464.803 559.388 465.161 542.47 464.032M542 464C542.155 464.011 542.311 464.021 542.47 464.032M383.168 526.251C381.549 518.55 378.798 511.855 374.434 505.165L374 504.5C359 481.5 308 426 305 423.5C302 421 267 380 253 359.5C241.8 343.1 231.667 316.333 228 305C220.692 277.891 218.699 257.199 222.182 239.906M595.961 534.661C583.658 510.911 566.217 487.109 542.47 464.032M348.452 175.863C350.2 176.367 351.884 176.912 353.5 177.5C358.261 179.231 362.992 181.187 367.594 183.412M367.594 183.412C387.131 190.761 429.627 206.22 452 212.5C480.5 220.5 529 233.5 576.5 241.5C610.967 247.305 663.336 250.214 693.109 251.564M372 248C372 259.598 362.598 269 351 269C339.402 269 330 259.598 330 248C330 236.402 339.402 227 351 227C362.598 227 372 236.402 372 248Z" stroke="black" stroke-width="16" stroke-linecap="round"/>
</mask>
<g mask="url(#mask0_201_53)">
<g filter="url(#filter0_f_201_53)">
<ellipse cx="764" cy="753" rx="108" ry="121" fill="#FF1313"/>
</g>
<g filter="url(#filter1_f_201_53)">
<ellipse cx="251" cy="750" rx="108" ry="121" fill="#FF1313"/>
</g>
<g filter="url(#filter2_f_201_53)">
<ellipse cx="32" cy="444" rx="108" ry="357" fill="#FF1313"/>
</g>
<g filter="url(#filter3_f_201_53)">
<ellipse cx="968" cy="464" rx="108" ry="357" fill="#FF1313"/>
</g>
<g filter="url(#filter4_f_201_53)">
<ellipse cx="519.5" cy="18" rx="382.5" ry="121" fill="#FF1313"/>
</g>
</g>
<mask id="mask1_201_53" style="mask-type:alpha" maskUnits="userSpaceOnUse" x="346" y="168" width="466" height="305">
<path d="M530 452.5C520.333 444.667 496 426.1 476 414.5C451 400 386 367 384 350.5C382 334 383 317.5 392.5 304.5C399.016 295.584 410 281.964 414 264.608C415.832 256.658 415.843 248 414 238.5C408.625 210.8 389.576 194.039 367.594 183.412C387.131 190.761 429.627 206.22 452 212.5C480.5 220.5 529 233.5 576.5 241.5C610.967 247.305 663.336 250.214 693.109 251.564C699.446 251.852 704.76 252.069 708.659 252.228L708.665 252.228L708.673 252.228L708.675 252.229C711.694 252.352 713.863 252.44 715 252.5C717.375 252.625 720.219 252.625 723.359 252.625C732.781 252.625 744.875 252.625 755 256L755.115 256.038C768.554 260.526 778.041 265.065 792.5 288C807 311 803 331 802.5 347.5C802 364 756.5 348 746 344C743 352.5 728.2 376.8 693 406C649 442.5 648 441.5 620 454.5C597.808 464.803 559.388 465.161 542.47 464.032C538.492 460.167 534.337 456.321 530 452.5Z" fill="#D9D9D9"/>
<path d="M530 452.5L535.288 446.497L535.165 446.388L535.037 446.285L530 452.5ZM476 414.5L480.014 407.58L480.014 407.58L476 414.5ZM392.5 304.5L386.041 299.78L386.041 299.78L392.5 304.5ZM414 238.5L421.853 236.976L421.853 236.976L414 238.5ZM353.5 177.5L350.766 185.018L350.766 185.018L353.5 177.5ZM414 264.608L406.204 262.811L406.204 262.811L414 264.608ZM449.031 276.941C453.417 277.476 457.406 274.355 457.941 269.969C458.476 265.583 455.355 261.594 450.969 261.059L449.031 276.941ZM369.323 175.515C365.189 173.956 360.574 176.043 359.015 180.177C357.455 184.311 359.543 188.926 363.677 190.485L369.323 175.515ZM452 212.5L454.162 204.798L454.162 204.798L452 212.5ZM576.5 241.5L575.171 249.389L575.171 249.389L576.5 241.5ZM715 252.5L714.579 260.489L714.579 260.489L715 252.5ZM755 256L757.53 248.411L755 256ZM792.5 288L785.733 292.266L785.733 292.266L792.5 288ZM446 324L447.483 316.139L446 324ZM391.069 305.155C386.736 304.289 382.522 307.099 381.655 311.431C380.789 315.764 383.599 319.978 387.931 320.845L391.069 305.155ZM693 406L687.892 399.843L687.892 399.843L693 406ZM620 454.5L623.369 461.756L623.369 461.756L620 454.5ZM542.559 456.02C538.151 455.711 534.328 459.034 534.019 463.441C533.711 467.849 537.034 471.672 541.441 471.981L542.559 456.02ZM755.115 256.038L757.649 248.45L757.649 248.45L755.115 256.038ZM693.109 251.564L692.746 259.556L692.746 259.556L693.109 251.564ZM708.665 252.228L708.32 260.221L708.329 260.221L708.339 260.221L708.665 252.228ZM708.673 252.228L709.006 244.235L708.999 244.235L708.673 252.228ZM708.659 252.228L709.004 244.235L708.995 244.235L708.986 244.235L708.659 252.228ZM708.675 252.229L708.342 260.222L708.349 260.222L708.675 252.229ZM535.037 446.285C525.258 438.36 500.548 419.49 480.014 407.58L471.986 421.42C491.452 432.71 515.409 450.973 524.963 458.716L535.037 446.285ZM480.014 407.58C467.013 400.039 445.159 388.541 425.58 376.444C415.87 370.445 407.155 364.554 400.826 359.277C397.654 356.633 395.293 354.316 393.737 352.38C392.057 350.291 391.924 349.392 391.942 349.537L376.058 351.463C376.576 355.733 378.911 359.475 381.267 362.405C383.746 365.488 386.986 368.57 390.58 371.566C397.782 377.571 407.254 383.93 417.17 390.056C436.841 402.209 459.987 414.461 471.986 421.42L480.014 407.58ZM391.942 349.537C390.023 333.708 391.268 319.745 398.959 309.22L386.041 299.78C374.732 315.255 373.977 334.292 376.058 351.463L391.942 349.537ZM398.959 309.22C405.151 300.746 417.349 285.699 421.796 266.404L406.204 262.811C402.651 278.228 392.88 290.421 386.041 299.78L398.959 309.22ZM421.796 266.404C423.919 257.19 423.873 247.385 421.853 236.976L406.146 240.024C407.814 248.616 407.745 256.126 406.204 262.811L421.796 266.404ZM413.031 272.549L449.031 276.941L450.969 261.059L414.969 256.667L413.031 272.549ZM449.838 220.202C478.397 228.219 527.233 241.315 575.171 249.389L577.829 233.611C530.767 225.685 482.603 212.781 454.162 204.798L449.838 220.202ZM785.733 292.266C798.609 312.691 795.039 329.573 794.504 347.258L810.496 347.742C810.96 332.427 815.391 309.309 799.267 283.734L785.733 292.266ZM794.504 347.258C794.501 347.347 794.494 347.176 794.633 346.875C794.776 346.564 794.976 346.33 795.13 346.197C795.348 346.009 795.089 346.338 793.609 346.588C790.575 347.099 785.676 346.76 779.502 345.58C767.456 343.277 753.982 338.48 748.848 336.524L743.152 351.476C748.518 353.52 763.044 358.723 776.498 361.295C783.074 362.552 790.3 363.37 796.266 362.366C799.286 361.857 802.746 360.761 805.589 358.305C808.705 355.613 810.37 351.897 810.496 347.742L794.504 347.258ZM748.848 336.524C745.344 335.189 739.583 334.055 733.551 333.079C727.252 332.06 719.824 331.091 712.483 330.241C697.849 328.545 683.152 327.273 677.899 327.01L677.1 342.99C681.848 343.227 696.151 344.455 710.642 346.134C717.863 346.971 725.029 347.909 730.996 348.874C737.229 349.882 741.406 350.811 743.152 351.476L748.848 336.524ZM677.899 327.01C672.749 326.753 652.732 326.251 633.531 325.877C623.895 325.689 614.399 325.532 606.991 325.454C599.943 325.379 594.023 325.358 592.204 325.54L593.796 341.46C593.753 341.465 594.02 341.444 594.829 341.427C595.546 341.412 596.5 341.403 597.676 341.4C600.023 341.395 603.148 341.414 606.821 341.453C614.163 341.53 623.605 341.686 633.219 341.874C652.518 342.249 672.251 342.748 677.1 342.99L677.899 327.01ZM592.204 325.54C592.207 325.539 591.971 325.558 591.355 325.574C590.795 325.588 590.063 325.596 589.166 325.599C587.376 325.603 585.039 325.583 582.312 325.54C576.865 325.455 569.971 325.284 563 325.066C548.731 324.621 535.072 324.001 532.131 323.58L529.869 339.42C533.928 340 548.769 340.63 562.5 341.059C569.529 341.278 576.509 341.451 582.062 341.538C587.306 341.62 591.964 341.644 593.796 341.46L592.204 325.54ZM532.131 323.58C529.951 323.269 524.95 322.969 518.953 322.623C512.703 322.262 504.828 321.827 496.339 321.267C479.241 320.14 460.195 318.537 447.483 316.139L444.517 331.861C458.305 334.463 478.259 336.11 495.286 337.233C503.86 337.798 511.828 338.238 518.031 338.596C524.487 338.969 528.548 339.231 529.869 339.42L532.131 323.58ZM447.483 316.139C426.323 312.146 401.055 307.153 391.069 305.155L387.931 320.845C397.945 322.848 423.277 327.854 444.517 331.861L447.483 316.139ZM738.456 341.337C736.126 347.94 722.516 371.121 687.892 399.843L698.108 412.157C733.884 382.479 749.874 357.06 753.544 346.663L738.456 341.337ZM687.892 399.843C665.823 418.15 654.947 426.702 646.178 432.33C637.514 437.892 630.937 440.602 616.631 447.244L623.369 461.756C637.063 455.398 644.986 452.108 654.821 445.795C664.553 439.548 676.177 430.35 698.108 412.157L687.892 399.843ZM752.581 263.627C759.054 265.788 763.742 267.701 768.51 271.413C773.361 275.192 778.768 281.219 785.733 292.266L799.267 283.734C791.773 271.847 785.207 264.137 778.34 258.79C771.39 253.377 764.616 250.777 757.649 248.45L752.581 263.627ZM616.631 447.244C606.827 451.796 592.801 454.369 578.577 455.582C564.524 456.781 551.097 456.59 543.002 456.05L541.937 472.014C550.761 472.603 565.003 472.798 579.937 471.524C594.701 470.265 610.981 467.508 623.369 461.756L616.631 447.244ZM543.002 456.05C542.852 456.04 542.704 456.03 542.559 456.02L541.441 471.981C541.605 471.992 541.77 472.003 541.937 472.014L543.002 456.05ZM752.47 263.59C752.508 263.602 752.545 263.614 752.581 263.627L757.649 248.45C757.609 248.437 757.569 248.424 757.53 248.411L752.47 263.59ZM548.045 458.295C543.972 454.337 539.722 450.403 535.288 446.497L524.711 458.503C528.953 462.239 533.012 465.996 536.894 469.769L548.045 458.295ZM346.237 183.55C347.822 184.007 349.333 184.497 350.766 185.018L356.234 169.982C354.436 169.328 352.578 168.726 350.667 168.176L346.237 183.55ZM350.766 185.018C355.31 186.671 359.787 188.524 364.112 190.615L371.076 176.21C366.196 173.851 361.211 171.792 356.234 169.982L350.766 185.018ZM364.778 190.9C384.27 198.232 427.082 213.815 449.838 220.202L454.162 204.798C432.173 198.625 389.992 183.29 370.411 175.924L364.778 190.9ZM575.171 249.389C610.193 255.287 663.04 258.209 692.746 259.556L693.471 243.573C663.632 242.219 611.741 239.323 577.829 233.611L575.171 249.389ZM421.853 236.976C415.826 205.911 394.367 187.469 371.076 176.21L364.112 190.615C384.785 200.609 401.425 215.688 406.146 240.024L421.853 236.976ZM363.677 190.485C364.035 190.621 364.402 190.759 364.778 190.9L370.411 175.924C370.04 175.785 369.677 175.648 369.323 175.515L363.677 190.485ZM714.579 260.489C717.209 260.627 720.286 260.625 723.359 260.625V244.625C720.151 244.625 717.541 244.623 715.42 244.511L714.579 260.489ZM723.359 260.625C733.06 260.625 743.798 260.699 752.47 263.59L757.53 248.411C745.952 244.551 732.502 244.625 723.359 244.625V260.625ZM752.468 263.589L752.583 263.627L757.647 248.45L757.532 248.411L752.468 263.589ZM708.998 244.235L708.99 244.235L708.339 260.221L708.347 260.222L708.998 244.235ZM709.009 244.236L709.004 244.235L708.315 260.22L708.32 260.221L709.009 244.236ZM708.986 244.235C705.087 244.075 699.789 243.859 693.471 243.573L692.746 259.556C699.104 259.845 704.433 260.062 708.333 260.221L708.986 244.235ZM708.339 260.221C708.341 260.222 708.343 260.222 708.344 260.222C708.345 260.222 708.346 260.222 708.347 260.222L708.999 244.235C708.997 244.235 708.995 244.235 708.994 244.235C708.992 244.235 708.992 244.235 708.991 244.235L708.339 260.221ZM708.34 260.221L708.342 260.222L709.008 244.235L709.006 244.235L708.34 260.221ZM708.349 260.222C711.399 260.346 713.503 260.432 714.579 260.489L715.42 244.511C714.223 244.448 711.988 244.357 709.001 244.235L708.349 260.222Z" fill="black"/>
</mask>
<g mask="url(#mask1_201_53)">
<g filter="url(#filter5_f_201_53)">
<ellipse cx="673.5" cy="319.5" rx="272.5" ry="234.5" fill="#FFF613"/>
</g>
</g>
<path d="M860.129 264C864.764 239.353 866.88 213.171 866 185.5C843.355 206.388 818.994 222.759 794 236.553M860.129 264C862.232 270.8 906.252 236.167 928 218C924.425 271.846 908.071 362.933 860.466 437.5M860.129 264C831.315 417.198 705.146 511.096 595.961 534.661M860.466 437.5C884.039 433.1 959.978 493 995 523.5C896.2 575.1 810.833 589 780.5 589.5M860.466 437.5C831.21 483.327 790.15 522.914 733 543.783C743.5 553.189 767.7 575.5 780.5 589.5M780.5 589.5C789.3 598.607 818.5 683.961 832 725.5C752.8 729.5 661.333 693.833 625.5 675.5M625.5 675.5C611.1 744.3 539.5 801.167 505.5 821C471.5 801.167 398.9 744.3 384.5 675.5M625.5 675.5C630.628 651 633 634 595.961 534.661M578 76.261C551.105 51.6329 524.732 32.2599 505 20C485.268 32.2599 458.895 51.6329 432 76.261M578 76.261C604 43.2698 664.167 18.3406 691 10C693.8 17.6 699.5 77.5 702 106.5M578 76.261C598.95 95.4448 620.216 117.817 638.908 142.5M702 106.5C685.938 114.333 650.834 132.5 638.908 142.5M702 106.5C710 102.512 766.667 86.5049 794 79C798.5 128.368 804.8 228.995 794 236.553M638.908 142.5C663.849 175.436 684.207 212.487 693.109 251.564M794 236.553C781.156 243.641 768.146 250.048 755.115 256.038M149.871 264C145.236 239.353 143.12 213.171 144 185.5C164.991 204.863 187.456 220.344 210.534 233.488M149.871 264C147.768 270.8 103.748 236.167 82 218C85.5749 271.846 101.929 362.933 149.534 437.5M149.871 264C176.001 402.923 282.187 493.083 383.168 526.251M149.534 437.5C125.961 433.1 50.0225 493 15 523.5C113.8 575.1 199.167 589 229.5 589.5M149.534 437.5C178.79 483.327 219.85 522.914 277 543.783C266.5 553.189 242.3 575.5 229.5 589.5M229.5 589.5C220.7 598.607 191.5 683.961 178 725.5C257.2 729.5 348.667 693.833 384.5 675.5M384.5 675.5C386.944 631.85 387.042 544.673 383.168 526.251M432 76.261C406 43.2698 345.833 18.3406 319 10C316.2 17.6 310.5 77.5 308 106.5M432 76.261C411.05 95.4448 389.784 117.817 371.092 142.5M308 106.5C324.062 114.333 359.166 132.5 371.092 142.5M308 106.5C300 102.512 243.333 86.5049 216 79C211.5 128.368 205.2 228.995 216 236.553M371.092 142.5C362.982 153.21 355.357 164.355 348.452 175.863M216 236.553C218.057 237.688 220.117 238.805 222.182 239.906M216 236.553C214.174 235.545 212.352 234.524 210.534 233.488M309.5 171.409C308.994 171.415 308.487 171.424 307.978 171.434M309.5 171.409C309.332 171.412 308.811 171.408 307.978 171.434M309.5 171.409C324.162 171.215 337.548 172.721 348.452 175.863M307.978 171.434C272.239 172.137 229.965 180.966 202.5 188M307.978 171.434C300.967 171.653 271.823 174.002 244.359 200.5M200 237.5C203.24 235.88 207.007 234.537 210.534 233.488M414 264.608C410 281.964 399.016 295.584 392.5 304.5C383 317.5 382 334 384 350.5C386 367 451 400 476 414.5C496 426.1 520.333 444.667 530 452.5C534.337 456.321 538.492 460.167 542.47 464.032M414 264.608C415.832 256.658 415.843 248 414 238.5C408.625 210.8 389.576 194.039 367.594 183.412M414 264.608L450 269M237.5 207.687C231.758 214.213 226.181 221.914 221 231C218.8 231.367 214.846 232.207 210.534 233.488M237.5 207.687C239.765 205.113 242.056 202.722 244.359 200.5M237.5 207.687C229.697 217.456 224.61 227.856 222.182 239.906M244.359 200.5C236.072 201.833 218 205.2 212 208M366.5 183C366.856 183.134 367.221 183.272 367.594 183.412M755 256C755.038 256.013 755.077 256.026 755.115 256.038M755 256C744.875 252.625 732.781 252.625 723.359 252.625C720.219 252.625 717.375 252.625 715 252.5C713.862 252.44 711.689 252.351 708.665 252.228C704.765 252.069 699.449 251.852 693.109 251.564M755 256L755.115 256.038M746 344C756.5 348 802 364 802.5 347.5C803 331 807 311 792.5 288C778.041 265.065 768.554 260.526 755.115 256.038M746 344C735.5 340 687.5 335.5 677.5 335C667.5 334.5 598 333 593 333.5C588 334 538 332.5 531 331.5C524 330.5 472.5 329 446 324C424.8 320 399.5 315 389.5 313M746 344C743 352.5 728.2 376.8 693 406C649 442.5 648 441.5 620 454.5C597.808 464.803 559.388 465.161 542.47 464.032M542 464C542.155 464.011 542.311 464.021 542.47 464.032M383.168 526.251C381.549 518.55 378.798 511.855 374.434 505.165L374 504.5C359 481.5 308 426 305 423.5C302 421 267 380 253 359.5C241.8 343.1 231.667 316.333 228 305C220.692 277.891 218.699 257.199 222.182 239.906M595.961 534.661C583.658 510.911 566.217 487.109 542.47 464.032M348.452 175.863C350.2 176.367 351.884 176.912 353.5 177.5C358.261 179.231 362.992 181.187 367.594 183.412M367.594 183.412C387.131 190.761 429.627 206.22 452 212.5C480.5 220.5 529 233.5 576.5 241.5C610.967 247.305 663.336 250.214 693.109 251.564M372 248C372 259.598 362.598 269 351 269C339.402 269 330 259.598 330 248C330 236.402 339.402 227 351 227C362.598 227 372 236.402 372 248Z" stroke="#191B20" stroke-width="16" stroke-linecap="round"/>
<defs>
<filter id="filter0_f_201_53" x="517" y="493" width="494" height="520" filterUnits="userSpaceOnUse" color-interpolation-filters="sRGB">
<feFlood flood-opacity="0" result="BackgroundImageFix"/>
<feBlend mode="normal" in="SourceGraphic" in2="BackgroundImageFix" result="shape"/>
<feGaussianBlur stdDeviation="69.5" result="effect1_foregroundBlur_201_53"/>
</filter>
<filter id="filter1_f_201_53" x="4" y="490" width="494" height="520" filterUnits="userSpaceOnUse" color-interpolation-filters="sRGB">
<feFlood flood-opacity="0" result="BackgroundImageFix"/>
<feBlend mode="normal" in="SourceGraphic" in2="BackgroundImageFix" result="shape"/>
<feGaussianBlur stdDeviation="69.5" result="effect1_foregroundBlur_201_53"/>
</filter>
<filter id="filter2_f_201_53" x="-215" y="-52" width="494" height="992" filterUnits="userSpaceOnUse" color-interpolation-filters="sRGB">
<feFlood flood-opacity="0" result="BackgroundImageFix"/>
<feBlend mode="normal" in="SourceGraphic" in2="BackgroundImageFix" result="shape"/>
<feGaussianBlur stdDeviation="69.5" result="effect1_foregroundBlur_201_53"/>
</filter>
<filter id="filter3_f_201_53" x="721" y="-32" width="494" height="992" filterUnits="userSpaceOnUse" color-interpolation-filters="sRGB">
<feFlood flood-opacity="0" result="BackgroundImageFix"/>
<feBlend mode="normal" in="SourceGraphic" in2="BackgroundImageFix" result="shape"/>
<feGaussianBlur stdDeviation="69.5" result="effect1_foregroundBlur_201_53"/>
</filter>
<filter id="filter4_f_201_53" x="-2" y="-242" width="1043" height="520" filterUnits="userSpaceOnUse" color-interpolation-filters="sRGB">
<feFlood flood-opacity="0" result="BackgroundImageFix"/>
<feBlend mode="normal" in="SourceGraphic" in2="BackgroundImageFix" result="shape"/>
<feGaussianBlur stdDeviation="69.5" result="effect1_foregroundBlur_201_53"/>
</filter>
<filter id="filter5_f_201_53" x="148" y="-168" width="1051" height="975" filterUnits="userSpaceOnUse" color-interpolation-filters="sRGB">
<feFlood flood-opacity="0" result="BackgroundImageFix"/>
<feBlend mode="normal" in="SourceGraphic" in2="BackgroundImageFix" result="shape"/>
<feGaussianBlur stdDeviation="126.5" result="effect1_foregroundBlur_201_53"/>
</filter>
</defs>
</svg>
